<?xml version="1.0" encoding="UTF-8"?>
<svg width="624px" height="745px" viewBox="0 0 624 745" version="1.1" xmlns="http://www.w3.org/2000/svg" xmlns:xlink="http://www.w3.org/1999/xlink">
    <title>tulip_hex_logo</title>
    <g id="Page-3-Copy" stroke="none" stroke-width="1" fill="none" fill-rule="evenodd">
        <g id="Group" transform="translate(-40.000000, 9.000000)">
            <path d="M351.726721,3.49345074 L653.330996,183.453423 L653.330996,543.546577 L351.726721,723.506549 L50.1224454,543.546577 L50.1224454,183.453423 L351.726721,3.49345074 Z" id="Polygon-Copy-3" stroke="#4D4C4C" stroke-width="6" fill="#F7F7F7"></path>
            <line x1="98.5" y1="149.5" x2="603.5" y2="149.5" id="Line-5-Copy-9" stroke="#FFFFFF" stroke-width="3" stroke-linecap="square"></line>
            <line x1="224.5" y1="75.5" x2="479.5" y2="75.5" id="Line-5-Copy-10" stroke="#FFFFFF" stroke-width="3" stroke-linecap="square"></line>
            <line x1="46.5" y1="221.5" x2="654.5" y2="221.5" id="Line-5-Copy-11" stroke="#FFFFFF" stroke-width="3" stroke-linecap="square"></line>
            <line x1="46.5" y1="293.5" x2="654.5" y2="293.5" id="Line-5-Copy-12" stroke="#FFFFFF" stroke-width="3" stroke-linecap="square"></line>
            <line x1="46.5" y1="365.5" x2="654.5" y2="365.5" id="Line-5-Copy-13" stroke="#FFFFFF" stroke-width="3" stroke-linecap="square"></line>
            <line x1="46.5" y1="437.5" x2="654.5" y2="437.5" id="Line-5-Copy-14" stroke="#FFFFFF" stroke-width="3" stroke-linecap="square"></line>
            <line x1="46.5" y1="509.5" x2="654.5" y2="509.5" id="Line-5-Copy-15" stroke="#FFFFFF" stroke-width="3" stroke-linecap="square"></line>
            <line x1="108.5" y1="581.5" x2="594.5" y2="581.5" id="Line-5-Copy-16" stroke="#FFFFFF" stroke-width="3" stroke-linecap="square"></line>
            <line x1="224.5" y1="653.5" x2="479.5" y2="653.5" id="Line-5-Copy-17" stroke="#FFFFFF" stroke-width="3" stroke-linecap="square"></line>
            <line x1="98.5" y1="151.5" x2="98.5" y2="577.5" id="Line-5" stroke="#FFFFFF" stroke-width="3" stroke-linecap="square"></line>
            <line x1="170.5" y1="109.5" x2="170.5" y2="619.5" id="Line-5-Copy-2" stroke="#FFFFFF" stroke-width="3" stroke-linecap="square"></line>
            <line x1="242.5" y1="60.5" x2="243.5" y2="664.5" id="Line-5-Copy-3" stroke="#FFFFFF" stroke-width="3" stroke-linecap="square"></line>
            <line x1="315.5" y1="18.5" x2="315.5" y2="707.5" id="Line-5-Copy-4" stroke="#FFFFFF" stroke-width="3" stroke-linecap="square"></line>
            <line x1="387.5" y1="18.5" x2="387.5" y2="707.5" id="Line-5-Copy-5" stroke="#FFFFFF" stroke-width="3" stroke-linecap="square"></line>
            <line x1="459.5" y1="60.5" x2="459.5" y2="664.5" id="Line-5-Copy-6" stroke="#FFFFFF" stroke-width="3" stroke-linecap="square"></line>
            <line x1="531.5" y1="104.5" x2="531.5" y2="619.5" id="Line-5-Copy-7" stroke="#FFFFFF" stroke-width="3" stroke-linecap="square"></line>
            <line x1="603.5" y1="149.5" x2="603.5" y2="577.5" id="Line-5-Copy-8" stroke="#FFFFFF" stroke-width="3" stroke-linecap="square"></line>
            <path d="M299.139285,137.924295 C325.771621,68.6491906 364.085825,33.1229737 385.934383,58.3499792 C406.543195,82.1455353 405.336986,151.72242 384.352223,219.493118 C383.110987,224.123099 381.49958,229.132625 379.458731,234.720144 L345.758758,326.985302 C338.794602,346.052051 317.692385,355.863141 298.625636,348.898985 C292.761545,346.757118 287.539677,343.156832 283.452526,338.437685 L281.118818,335.743114 C270.392264,323.357912 264.270029,313.91252 260.121721,303.953581 C255.973413,293.994643 254.115692,283.887783 254.45144,273.104639 C254.787187,262.321496 257.150459,251.3164 262.771698,235.926343 L296.471671,143.661185 C297.168086,141.75451 298.005883,139.940391 298.968886,138.226349 Z" id="Combined-Shape-Copy-2" fill="#FDB38B" transform="translate(327.585674, 200.686609) rotate(12.000000) translate(-327.585674, -200.686609) "></path>
            <path d="M354.444361,191.869187 C385.580839,122.419673 431.162461,86.4612674 457.009124,111.433392 C482.719329,136.273677 479.352172,212.175734 449.807825,282.431176 C448.890214,284.866414 447.88011,287.346573 446.775951,289.876151 L411.636671,370.378611 C401.450425,393.714829 374.275099,404.374987 350.938881,394.188741 C345.902653,391.99043 341.299982,388.909481 337.348074,385.091289 L336.819791,384.580881 C325.636931,373.776399 317.811903,363.284248 312.735435,352.303231 C307.658968,341.322214 305.400713,329.919626 305.908617,317.832638 C306.416522,305.745649 309.651841,293.063023 315.872483,278.811819 L351.011763,198.309359 C351.928525,196.209099 352.982899,194.211516 354.1597,192.322564 Z" id="Combined-Shape-Copy-4" fill="#FDB38B" transform="translate(390.078419, 250.776782) rotate(27.000000) translate(-390.078419, -250.776782) "></path>
            <line x1="260.5" y1="355.5" x2="178" y2="508" id="Line-4" stroke="#418D2D" stroke-width="6" stroke-linecap="square"></line>
            <line x1="156" y1="608" x2="178" y2="508" id="Line-4" stroke="#418D2D" stroke-width="6" stroke-linecap="square"></line>
            <path d="M292.793666,179.933363 C339.868214,107.444916 410.133694,69.5300124 449.736009,95.2480561 C489.338323,120.9661 483.280881,200.578191 436.206334,273.066637 C434.671537,275.430016 433.11209,277.756644 431.529857,280.045512 C430.184714,282.548747 428.712732,285.03631 427.112213,287.500893 L387.898202,347.885174 C378.732409,361.999258 367.163547,372.568852 354.243853,379.370296 C341.324159,386.171741 327.053632,389.205035 312.484508,388.246519 C297.915383,387.288004 283.047661,382.337679 268.933577,373.171885 C254.819492,364.006092 244.249898,352.43723 237.448454,339.517536 C230.647009,326.597842 227.613715,312.327315 228.572231,297.758191 C229.530746,283.189066 234.481071,268.321344 243.646865,254.20726 L282.860875,193.822979 C285.259696,190.129118 287.823114,186.678035 290.532267,183.47374 C291.273777,182.292366 292.0283,181.111923 292.793666,179.933363 Z" id="Combined-Shape" fill="#FC5306" transform="translate(352.144173, 237.806879) rotate(6.000000) translate(-352.144173, -237.806879) "></path>
            <text id="tulip" fill-rule="nonzero" font-family="Helvetica-Bold, Helvetica" font-size="72" font-weight="bold" fill="#3D3D3D">
                <tspan x="384.527344" y="509">tulip</tspan>
            </text>
            <circle id="Oval" stroke="#FFFFFF" fill="#418D2D" cx="178" cy="508" r="28.5"></circle>
            <polygon id="Polygon-Copy-4" stroke="#3D3D3D" stroke-width="14" fill-opacity="0" fill="#D8D8D8" stroke-linecap="square" points="351.726721 0 656.330996 181.75 656.330996 545.25 351.726721 727 47.1224454 545.25 47.1224454 181.75"></polygon>
        </g>
    </g>
</svg>